<svg width="859" height="278" viewBox="0 0 859 278" fill="none" xmlns="http://www.w3.org/2000/svg">
<g filter="url(#filter0_d_1119_327)">
<mask id="path-1-outside-1_1119_327" maskUnits="userSpaceOnUse" x="157.15" y="32.4919" width="669" height="208" fill="black">
<rect fill="white" x="157.15" y="32.4919" width="669" height="208"/>
<path d="M220.765 235C207.395 235 196.315 232.346 187.524 227.037C178.733 221.545 172.139 214.406 167.744 205.619C163.348 196.649 161.15 187.038 161.15 176.787C161.15 167.085 162.982 157.383 166.645 147.68C170.491 137.795 175.985 128.825 183.128 120.771C190.454 112.716 199.245 106.217 209.501 101.275C219.941 96.332 231.662 93.8607 244.666 93.8607C260.783 93.8607 272.504 97.5219 279.83 104.844C287.339 111.984 291.093 120.679 291.093 130.93C291.093 139.717 288.712 147.863 283.951 155.369C279.372 162.691 273.237 168.641 265.544 173.217C257.852 177.611 249.427 179.807 240.27 179.807C235.508 179.807 230.655 179.075 225.71 177.611C220.765 176.146 215.911 173.858 211.15 170.746C212.065 182.096 215.362 190.333 221.04 195.459C226.717 200.585 233.494 203.148 241.369 203.148C246.863 203.148 252.358 202.141 257.852 200.127C263.347 197.93 268.383 195.184 272.962 191.889C277.724 188.411 281.387 184.75 283.951 180.906L285.874 182.279C285.874 191.798 283.859 199.944 279.83 206.717C275.984 213.307 270.856 218.708 264.445 222.918C258.035 227.128 250.984 230.24 243.292 232.254C235.783 234.085 228.274 235 220.765 235ZM227.083 160.861C232.944 160.861 237.706 159.213 241.369 155.918C245.032 152.44 247.779 148.413 249.611 143.836C251.442 139.26 252.358 135.232 252.358 131.754C252.358 127.544 251.167 124.066 248.786 121.32C246.405 118.391 243.109 116.926 238.896 116.926C235.6 116.926 231.937 118.116 227.908 120.496C224.061 122.876 220.582 126.995 217.468 132.852C214.355 138.527 212.34 146.49 211.424 156.742C217.285 159.488 222.505 160.861 227.083 160.861Z"/>
<path d="M336.51 234.176C329.917 234.176 323.965 231.522 318.653 226.213C313.525 220.721 310.961 213.216 310.961 203.697C310.961 198.937 311.602 193.537 312.884 187.496C314.166 181.272 315.54 174.956 317.005 168.549C318.653 162.142 320.119 156.101 321.401 150.426C322.683 144.751 323.324 139.992 323.324 136.148C323.324 133.036 322.591 130.564 321.126 128.734C319.661 126.72 317.738 125.713 315.357 125.713C312.243 125.713 308.855 127.544 305.192 131.205L303.544 130.107C303.361 127.178 304.002 123.699 305.467 119.672C306.932 115.645 309.313 111.801 312.61 108.139C315.906 104.295 320.21 101.092 325.521 98.5287C330.833 95.9659 337.151 94.6845 344.477 94.6845C352.719 94.6845 358.854 97.6134 362.884 103.471C367.096 109.146 369.202 116.011 369.202 124.066C369.202 124.981 369.202 125.988 369.202 127.086C369.202 128.001 369.111 128.917 368.927 129.832C372.407 124.157 376.436 118.665 381.015 113.357C385.777 108.048 391.088 103.654 396.949 100.176C402.993 96.5151 409.495 94.6845 416.454 94.6845C425.428 94.6845 431.655 97.6134 435.135 103.471C438.615 109.146 440.355 115.645 440.355 122.967C440.355 124.432 440.263 125.896 440.08 127.361C440.08 128.642 439.989 129.924 439.805 131.205C443.652 125.53 447.864 119.947 452.443 114.455C457.204 108.78 462.607 104.112 468.651 100.451C474.695 96.6066 481.655 94.6845 489.53 94.6845C499.237 94.6845 505.83 97.5219 509.31 103.197C512.973 108.872 514.804 115.553 514.804 123.242C514.804 130.015 513.98 137.795 512.332 146.582C510.683 155.186 509.035 163.698 507.387 172.119C505.738 180.54 504.914 187.679 504.914 193.537C504.914 197.015 505.372 199.853 506.288 202.049C507.387 204.246 509.127 205.344 511.508 205.344C513.522 205.344 515.354 204.795 517.002 203.697C518.833 202.415 520.116 200.951 520.848 199.303L523.046 200.127C523.046 206.9 521.123 212.85 517.277 217.975C513.431 223.101 508.577 227.128 502.716 230.057C496.856 232.803 490.995 234.176 485.134 234.176C477.992 234.176 471.673 231.797 466.179 227.037C460.867 222.277 458.212 214.406 458.212 203.422C458.212 196.649 459.036 189.327 460.684 181.455C462.516 173.583 464.256 165.986 465.904 158.664C467.735 151.159 468.651 145.026 468.651 140.266C468.651 133.493 466.27 130.107 461.508 130.107C458.029 130.107 454.549 131.571 451.069 134.5C447.772 137.246 444.75 140.999 442.003 145.758C439.439 150.335 437.333 155.186 435.685 160.312C434.036 165.437 433.212 170.38 433.212 175.139C433.212 179.533 433.67 184.384 434.586 189.693C435.685 194.818 436.234 199.761 436.234 204.521C436.234 214.04 433.578 221.362 428.267 226.488C422.956 231.613 416.729 234.176 409.586 234.176C402.993 234.176 397.041 231.98 391.729 227.586C386.601 223.193 384.037 216.603 384.037 207.816C384.037 203.788 384.587 198.937 385.685 193.262C386.784 187.404 387.975 181.363 389.257 175.139C390.722 168.732 392.004 162.6 393.103 156.742C394.202 150.884 394.751 145.758 394.751 141.365C394.751 137.887 394.202 135.141 393.103 133.127C392.187 131.113 390.264 130.107 387.334 130.107C383.121 130.107 379.092 132.212 375.246 136.422C371.4 140.633 368.103 145.758 365.356 151.799C362.609 157.657 360.777 163.332 359.862 168.824C359.678 170.105 359.495 171.112 359.312 171.844C359.312 172.577 359.312 172.943 359.312 172.943C359.312 178.618 359.953 183.835 361.235 188.594C362.517 193.171 363.158 197.93 363.158 202.873C363.158 211.843 360.411 219.348 354.917 225.389C349.605 231.247 343.47 234.176 336.51 234.176Z"/>
<path d="M742.056 235C728.32 235 716.965 232.254 707.991 226.762C699.017 221.271 692.332 214.04 687.936 205.07C683.724 195.917 681.618 186.215 681.618 175.963C681.618 166.261 683.358 156.559 686.837 146.857C690.5 137.154 695.72 128.368 702.497 120.496C709.456 112.441 717.881 106.034 727.771 101.275C737.661 96.332 749.016 93.8607 761.836 93.8607C775.572 93.8607 786.836 96.6981 795.627 102.373C804.601 107.865 811.194 115.187 815.407 124.34C819.802 133.493 822 143.287 822 153.721C822 163.24 820.26 172.851 816.781 182.553C813.301 192.072 808.081 200.859 801.121 208.914C794.345 216.786 786.012 223.101 776.122 227.861C766.232 232.62 754.877 235 742.056 235ZM749.474 211.66C754.419 211.66 758.54 209.097 761.836 203.971C765.133 198.846 767.605 192.347 769.254 184.475C770.902 176.421 771.726 168.275 771.726 160.037C771.726 152.715 770.994 145.85 769.528 139.443C768.246 132.852 766.232 127.544 763.485 123.516C760.737 119.306 757.166 117.201 752.771 117.201C748.009 117.201 743.888 119.764 740.408 124.889C737.111 130.015 734.639 136.514 732.991 144.385C731.342 152.257 730.518 160.403 730.518 168.824C730.518 176.146 731.159 183.103 732.441 189.693C733.906 196.1 736.013 201.409 738.76 205.619C741.507 209.646 745.078 211.66 749.474 211.66Z"/>
<path d="M596.732 236.394C591.421 236.577 586.11 236.119 580.799 235.021C575.487 233.922 571 231.634 567.337 228.156C567.52 223.579 567.429 216.806 567.063 207.836C566.879 198.866 566.421 188.89 565.689 177.906C564.956 166.739 563.766 155.481 562.118 144.131C560.652 132.782 558.638 122.347 556.074 112.828C553.693 103.126 550.762 95.3458 547.283 89.4879C543.803 83.63 539.682 80.701 534.92 80.701C530.708 80.701 525.946 82.9892 520.635 87.5657L518.712 85.9182C523.84 70.175 530.525 58.1846 538.766 49.9469C547.191 41.7092 555.891 37.5903 564.865 37.5903C572.74 37.5903 579.333 40.3362 584.645 45.828C589.956 51.3198 594.168 58.7338 597.282 68.0699C600.579 77.2229 602.868 87.5658 604.15 99.0985C605.615 110.448 606.348 122.073 606.348 133.972C606.348 143.491 605.981 152.827 605.249 161.98C604.516 171.133 603.509 179.554 602.227 187.242C611.934 174.977 620.084 161.614 626.677 147.152C633.27 132.507 638.307 118.045 641.787 103.767C645.266 89.3048 647.006 76.3075 647.006 64.7747C647.006 62.578 646.915 60.3813 646.732 58.1846C646.548 55.8048 646.274 53.6996 645.907 51.869C649.753 46.9264 654.699 43.1737 660.742 40.6108C666.786 37.8649 672.83 36.492 678.874 36.492C684.735 36.492 689.863 37.7734 694.258 40.3362C698.654 42.716 701.401 46.5603 702.5 51.869C700.119 69.2597 695.357 86.6504 688.214 104.041C681.255 121.432 672.739 138.273 662.665 154.566C652.592 170.675 641.787 185.686 630.248 199.599C618.893 213.511 607.721 225.776 596.732 236.394Z"/>
</mask>
<path d="M220.765 235C207.395 235 196.315 232.346 187.524 227.037C178.733 221.545 172.139 214.406 167.744 205.619C163.348 196.649 161.15 187.038 161.15 176.787C161.15 167.085 162.982 157.383 166.645 147.68C170.491 137.795 175.985 128.825 183.128 120.771C190.454 112.716 199.245 106.217 209.501 101.275C219.941 96.332 231.662 93.8607 244.666 93.8607C260.783 93.8607 272.504 97.5219 279.83 104.844C287.339 111.984 291.093 120.679 291.093 130.93C291.093 139.717 288.712 147.863 283.951 155.369C279.372 162.691 273.237 168.641 265.544 173.217C257.852 177.611 249.427 179.807 240.27 179.807C235.508 179.807 230.655 179.075 225.71 177.611C220.765 176.146 215.911 173.858 211.15 170.746C212.065 182.096 215.362 190.333 221.04 195.459C226.717 200.585 233.494 203.148 241.369 203.148C246.863 203.148 252.358 202.141 257.852 200.127C263.347 197.93 268.383 195.184 272.962 191.889C277.724 188.411 281.387 184.75 283.951 180.906L285.874 182.279C285.874 191.798 283.859 199.944 279.83 206.717C275.984 213.307 270.856 218.708 264.445 222.918C258.035 227.128 250.984 230.24 243.292 232.254C235.783 234.085 228.274 235 220.765 235ZM227.083 160.861C232.944 160.861 237.706 159.213 241.369 155.918C245.032 152.44 247.779 148.413 249.611 143.836C251.442 139.26 252.358 135.232 252.358 131.754C252.358 127.544 251.167 124.066 248.786 121.32C246.405 118.391 243.109 116.926 238.896 116.926C235.6 116.926 231.937 118.116 227.908 120.496C224.061 122.876 220.582 126.995 217.468 132.852C214.355 138.527 212.34 146.49 211.424 156.742C217.285 159.488 222.505 160.861 227.083 160.861Z" fill="#A5C5FF"/>
<path d="M336.51 234.176C329.917 234.176 323.965 231.522 318.653 226.213C313.525 220.721 310.961 213.216 310.961 203.697C310.961 198.937 311.602 193.537 312.884 187.496C314.166 181.272 315.54 174.956 317.005 168.549C318.653 162.142 320.119 156.101 321.401 150.426C322.683 144.751 323.324 139.992 323.324 136.148C323.324 133.036 322.591 130.564 321.126 128.734C319.661 126.72 317.738 125.713 315.357 125.713C312.243 125.713 308.855 127.544 305.192 131.205L303.544 130.107C303.361 127.178 304.002 123.699 305.467 119.672C306.932 115.645 309.313 111.801 312.61 108.139C315.906 104.295 320.21 101.092 325.521 98.5287C330.833 95.9659 337.151 94.6845 344.477 94.6845C352.719 94.6845 358.854 97.6134 362.884 103.471C367.096 109.146 369.202 116.011 369.202 124.066C369.202 124.981 369.202 125.988 369.202 127.086C369.202 128.001 369.111 128.917 368.927 129.832C372.407 124.157 376.436 118.665 381.015 113.357C385.777 108.048 391.088 103.654 396.949 100.176C402.993 96.5151 409.495 94.6845 416.454 94.6845C425.428 94.6845 431.655 97.6134 435.135 103.471C438.615 109.146 440.355 115.645 440.355 122.967C440.355 124.432 440.263 125.896 440.08 127.361C440.08 128.642 439.989 129.924 439.805 131.205C443.652 125.53 447.864 119.947 452.443 114.455C457.204 108.78 462.607 104.112 468.651 100.451C474.695 96.6066 481.655 94.6845 489.53 94.6845C499.237 94.6845 505.83 97.5219 509.31 103.197C512.973 108.872 514.804 115.553 514.804 123.242C514.804 130.015 513.98 137.795 512.332 146.582C510.683 155.186 509.035 163.698 507.387 172.119C505.738 180.54 504.914 187.679 504.914 193.537C504.914 197.015 505.372 199.853 506.288 202.049C507.387 204.246 509.127 205.344 511.508 205.344C513.522 205.344 515.354 204.795 517.002 203.697C518.833 202.415 520.116 200.951 520.848 199.303L523.046 200.127C523.046 206.9 521.123 212.85 517.277 217.975C513.431 223.101 508.577 227.128 502.716 230.057C496.856 232.803 490.995 234.176 485.134 234.176C477.992 234.176 471.673 231.797 466.179 227.037C460.867 222.277 458.212 214.406 458.212 203.422C458.212 196.649 459.036 189.327 460.684 181.455C462.516 173.583 464.256 165.986 465.904 158.664C467.735 151.159 468.651 145.026 468.651 140.266C468.651 133.493 466.27 130.107 461.508 130.107C458.029 130.107 454.549 131.571 451.069 134.5C447.772 137.246 444.75 140.999 442.003 145.758C439.439 150.335 437.333 155.186 435.685 160.312C434.036 165.437 433.212 170.38 433.212 175.139C433.212 179.533 433.67 184.384 434.586 189.693C435.685 194.818 436.234 199.761 436.234 204.521C436.234 214.04 433.578 221.362 428.267 226.488C422.956 231.613 416.729 234.176 409.586 234.176C402.993 234.176 397.041 231.98 391.729 227.586C386.601 223.193 384.037 216.603 384.037 207.816C384.037 203.788 384.587 198.937 385.685 193.262C386.784 187.404 387.975 181.363 389.257 175.139C390.722 168.732 392.004 162.6 393.103 156.742C394.202 150.884 394.751 145.758 394.751 141.365C394.751 137.887 394.202 135.141 393.103 133.127C392.187 131.113 390.264 130.107 387.334 130.107C383.121 130.107 379.092 132.212 375.246 136.422C371.4 140.633 368.103 145.758 365.356 151.799C362.609 157.657 360.777 163.332 359.862 168.824C359.678 170.105 359.495 171.112 359.312 171.844C359.312 172.577 359.312 172.943 359.312 172.943C359.312 178.618 359.953 183.835 361.235 188.594C362.517 193.171 363.158 197.93 363.158 202.873C363.158 211.843 360.411 219.348 354.917 225.389C349.605 231.247 343.47 234.176 336.51 234.176Z" fill="#A5C5FF"/>
<path d="M742.056 235C728.32 235 716.965 232.254 707.991 226.762C699.017 221.271 692.332 214.04 687.936 205.07C683.724 195.917 681.618 186.215 681.618 175.963C681.618 166.261 683.358 156.559 686.837 146.857C690.5 137.154 695.72 128.368 702.497 120.496C709.456 112.441 717.881 106.034 727.771 101.275C737.661 96.332 749.016 93.8607 761.836 93.8607C775.572 93.8607 786.836 96.6981 795.627 102.373C804.601 107.865 811.194 115.187 815.407 124.34C819.802 133.493 822 143.287 822 153.721C822 163.24 820.26 172.851 816.781 182.553C813.301 192.072 808.081 200.859 801.121 208.914C794.345 216.786 786.012 223.101 776.122 227.861C766.232 232.62 754.877 235 742.056 235ZM749.474 211.66C754.419 211.66 758.54 209.097 761.836 203.971C765.133 198.846 767.605 192.347 769.254 184.475C770.902 176.421 771.726 168.275 771.726 160.037C771.726 152.715 770.994 145.85 769.528 139.443C768.246 132.852 766.232 127.544 763.485 123.516C760.737 119.306 757.166 117.201 752.771 117.201C748.009 117.201 743.888 119.764 740.408 124.889C737.111 130.015 734.639 136.514 732.991 144.385C731.342 152.257 730.518 160.403 730.518 168.824C730.518 176.146 731.159 183.103 732.441 189.693C733.906 196.1 736.013 201.409 738.76 205.619C741.507 209.646 745.078 211.66 749.474 211.66Z" fill="#A5C5FF"/>
<path d="M596.732 236.394C591.421 236.577 586.11 236.119 580.799 235.021C575.487 233.922 571 231.634 567.337 228.156C567.52 223.579 567.429 216.806 567.063 207.836C566.879 198.866 566.421 188.89 565.689 177.906C564.956 166.739 563.766 155.481 562.118 144.131C560.652 132.782 558.638 122.347 556.074 112.828C553.693 103.126 550.762 95.3458 547.283 89.4879C543.803 83.63 539.682 80.701 534.92 80.701C530.708 80.701 525.946 82.9892 520.635 87.5657L518.712 85.9182C523.84 70.175 530.525 58.1846 538.766 49.9469C547.191 41.7092 555.891 37.5903 564.865 37.5903C572.74 37.5903 579.333 40.3362 584.645 45.828C589.956 51.3198 594.168 58.7338 597.282 68.0699C600.579 77.2229 602.868 87.5658 604.15 99.0985C605.615 110.448 606.348 122.073 606.348 133.972C606.348 143.491 605.981 152.827 605.249 161.98C604.516 171.133 603.509 179.554 602.227 187.242C611.934 174.977 620.084 161.614 626.677 147.152C633.27 132.507 638.307 118.045 641.787 103.767C645.266 89.3048 647.006 76.3075 647.006 64.7747C647.006 62.578 646.915 60.3813 646.732 58.1846C646.548 55.8048 646.274 53.6996 645.907 51.869C649.753 46.9264 654.699 43.1737 660.742 40.6108C666.786 37.8649 672.83 36.492 678.874 36.492C684.735 36.492 689.863 37.7734 694.258 40.3362C698.654 42.716 701.401 46.5603 702.5 51.869C700.119 69.2597 695.357 86.6504 688.214 104.041C681.255 121.432 672.739 138.273 662.665 154.566C652.592 170.675 641.787 185.686 630.248 199.599C618.893 213.511 607.721 225.776 596.732 236.394Z" fill="#A5C5FF"/>
<path d="M220.765 235C207.395 235 196.315 232.346 187.524 227.037C178.733 221.545 172.139 214.406 167.744 205.619C163.348 196.649 161.15 187.038 161.15 176.787C161.15 167.085 162.982 157.383 166.645 147.68C170.491 137.795 175.985 128.825 183.128 120.771C190.454 112.716 199.245 106.217 209.501 101.275C219.941 96.332 231.662 93.8607 244.666 93.8607C260.783 93.8607 272.504 97.5219 279.83 104.844C287.339 111.984 291.093 120.679 291.093 130.93C291.093 139.717 288.712 147.863 283.951 155.369C279.372 162.691 273.237 168.641 265.544 173.217C257.852 177.611 249.427 179.807 240.27 179.807C235.508 179.807 230.655 179.075 225.71 177.611C220.765 176.146 215.911 173.858 211.15 170.746C212.065 182.096 215.362 190.333 221.04 195.459C226.717 200.585 233.494 203.148 241.369 203.148C246.863 203.148 252.358 202.141 257.852 200.127C263.347 197.93 268.383 195.184 272.962 191.889C277.724 188.411 281.387 184.75 283.951 180.906L285.874 182.279C285.874 191.798 283.859 199.944 279.83 206.717C275.984 213.307 270.856 218.708 264.445 222.918C258.035 227.128 250.984 230.24 243.292 232.254C235.783 234.085 228.274 235 220.765 235ZM227.083 160.861C232.944 160.861 237.706 159.213 241.369 155.918C245.032 152.44 247.779 148.413 249.611 143.836C251.442 139.26 252.358 135.232 252.358 131.754C252.358 127.544 251.167 124.066 248.786 121.32C246.405 118.391 243.109 116.926 238.896 116.926C235.6 116.926 231.937 118.116 227.908 120.496C224.061 122.876 220.582 126.995 217.468 132.852C214.355 138.527 212.34 146.49 211.424 156.742C217.285 159.488 222.505 160.861 227.083 160.861Z" stroke="#143A7D" stroke-width="8" mask="url(#path-1-outside-1_1119_327)"/>
<path d="M336.51 234.176C329.917 234.176 323.965 231.522 318.653 226.213C313.525 220.721 310.961 213.216 310.961 203.697C310.961 198.937 311.602 193.537 312.884 187.496C314.166 181.272 315.54 174.956 317.005 168.549C318.653 162.142 320.119 156.101 321.401 150.426C322.683 144.751 323.324 139.992 323.324 136.148C323.324 133.036 322.591 130.564 321.126 128.734C319.661 126.72 317.738 125.713 315.357 125.713C312.243 125.713 308.855 127.544 305.192 131.205L303.544 130.107C303.361 127.178 304.002 123.699 305.467 119.672C306.932 115.645 309.313 111.801 312.61 108.139C315.906 104.295 320.21 101.092 325.521 98.5287C330.833 95.9659 337.151 94.6845 344.477 94.6845C352.719 94.6845 358.854 97.6134 362.884 103.471C367.096 109.146 369.202 116.011 369.202 124.066C369.202 124.981 369.202 125.988 369.202 127.086C369.202 128.001 369.111 128.917 368.927 129.832C372.407 124.157 376.436 118.665 381.015 113.357C385.777 108.048 391.088 103.654 396.949 100.176C402.993 96.5151 409.495 94.6845 416.454 94.6845C425.428 94.6845 431.655 97.6134 435.135 103.471C438.615 109.146 440.355 115.645 440.355 122.967C440.355 124.432 440.263 125.896 440.08 127.361C440.08 128.642 439.989 129.924 439.805 131.205C443.652 125.53 447.864 119.947 452.443 114.455C457.204 108.78 462.607 104.112 468.651 100.451C474.695 96.6066 481.655 94.6845 489.53 94.6845C499.237 94.6845 505.83 97.5219 509.31 103.197C512.973 108.872 514.804 115.553 514.804 123.242C514.804 130.015 513.98 137.795 512.332 146.582C510.683 155.186 509.035 163.698 507.387 172.119C505.738 180.54 504.914 187.679 504.914 193.537C504.914 197.015 505.372 199.853 506.288 202.049C507.387 204.246 509.127 205.344 511.508 205.344C513.522 205.344 515.354 204.795 517.002 203.697C518.833 202.415 520.116 200.951 520.848 199.303L523.046 200.127C523.046 206.9 521.123 212.85 517.277 217.975C513.431 223.101 508.577 227.128 502.716 230.057C496.856 232.803 490.995 234.176 485.134 234.176C477.992 234.176 471.673 231.797 466.179 227.037C460.867 222.277 458.212 214.406 458.212 203.422C458.212 196.649 459.036 189.327 460.684 181.455C462.516 173.583 464.256 165.986 465.904 158.664C467.735 151.159 468.651 145.026 468.651 140.266C468.651 133.493 466.27 130.107 461.508 130.107C458.029 130.107 454.549 131.571 451.069 134.5C447.772 137.246 444.75 140.999 442.003 145.758C439.439 150.335 437.333 155.186 435.685 160.312C434.036 165.437 433.212 170.38 433.212 175.139C433.212 179.533 433.67 184.384 434.586 189.693C435.685 194.818 436.234 199.761 436.234 204.521C436.234 214.04 433.578 221.362 428.267 226.488C422.956 231.613 416.729 234.176 409.586 234.176C402.993 234.176 397.041 231.98 391.729 227.586C386.601 223.193 384.037 216.603 384.037 207.816C384.037 203.788 384.587 198.937 385.685 193.262C386.784 187.404 387.975 181.363 389.257 175.139C390.722 168.732 392.004 162.6 393.103 156.742C394.202 150.884 394.751 145.758 394.751 141.365C394.751 137.887 394.202 135.141 393.103 133.127C392.187 131.113 390.264 130.107 387.334 130.107C383.121 130.107 379.092 132.212 375.246 136.422C371.4 140.633 368.103 145.758 365.356 151.799C362.609 157.657 360.777 163.332 359.862 168.824C359.678 170.105 359.495 171.112 359.312 171.844C359.312 172.577 359.312 172.943 359.312 172.943C359.312 178.618 359.953 183.835 361.235 188.594C362.517 193.171 363.158 197.93 363.158 202.873C363.158 211.843 360.411 219.348 354.917 225.389C349.605 231.247 343.47 234.176 336.51 234.176Z" stroke="#143A7D" stroke-width="8" mask="url(#path-1-outside-1_1119_327)"/>
<path d="M742.056 235C728.32 235 716.965 232.254 707.991 226.762C699.017 221.271 692.332 214.04 687.936 205.07C683.724 195.917 681.618 186.215 681.618 175.963C681.618 166.261 683.358 156.559 686.837 146.857C690.5 137.154 695.72 128.368 702.497 120.496C709.456 112.441 717.881 106.034 727.771 101.275C737.661 96.332 749.016 93.8607 761.836 93.8607C775.572 93.8607 786.836 96.6981 795.627 102.373C804.601 107.865 811.194 115.187 815.407 124.34C819.802 133.493 822 143.287 822 153.721C822 163.24 820.26 172.851 816.781 182.553C813.301 192.072 808.081 200.859 801.121 208.914C794.345 216.786 786.012 223.101 776.122 227.861C766.232 232.62 754.877 235 742.056 235ZM749.474 211.66C754.419 211.66 758.54 209.097 761.836 203.971C765.133 198.846 767.605 192.347 769.254 184.475C770.902 176.421 771.726 168.275 771.726 160.037C771.726 152.715 770.994 145.85 769.528 139.443C768.246 132.852 766.232 127.544 763.485 123.516C760.737 119.306 757.166 117.201 752.771 117.201C748.009 117.201 743.888 119.764 740.408 124.889C737.111 130.015 734.639 136.514 732.991 144.385C731.342 152.257 730.518 160.403 730.518 168.824C730.518 176.146 731.159 183.103 732.441 189.693C733.906 196.1 736.013 201.409 738.76 205.619C741.507 209.646 745.078 211.66 749.474 211.66Z" stroke="#143A7D" stroke-width="8" mask="url(#path-1-outside-1_1119_327)"/>
<path d="M596.732 236.394C591.421 236.577 586.11 236.119 580.799 235.021C575.487 233.922 571 231.634 567.337 228.156C567.52 223.579 567.429 216.806 567.063 207.836C566.879 198.866 566.421 188.89 565.689 177.906C564.956 166.739 563.766 155.481 562.118 144.131C560.652 132.782 558.638 122.347 556.074 112.828C553.693 103.126 550.762 95.3458 547.283 89.4879C543.803 83.63 539.682 80.701 534.92 80.701C530.708 80.701 525.946 82.9892 520.635 87.5657L518.712 85.9182C523.84 70.175 530.525 58.1846 538.766 49.9469C547.191 41.7092 555.891 37.5903 564.865 37.5903C572.74 37.5903 579.333 40.3362 584.645 45.828C589.956 51.3198 594.168 58.7338 597.282 68.0699C600.579 77.2229 602.868 87.5658 604.15 99.0985C605.615 110.448 606.348 122.073 606.348 133.972C606.348 143.491 605.981 152.827 605.249 161.98C604.516 171.133 603.509 179.554 602.227 187.242C611.934 174.977 620.084 161.614 626.677 147.152C633.27 132.507 638.307 118.045 641.787 103.767C645.266 89.3048 647.006 76.3075 647.006 64.7747C647.006 62.578 646.915 60.3813 646.732 58.1846C646.548 55.8048 646.274 53.6996 645.907 51.869C649.753 46.9264 654.699 43.1737 660.742 40.6108C666.786 37.8649 672.83 36.492 678.874 36.492C684.735 36.492 689.863 37.7734 694.258 40.3362C698.654 42.716 701.401 46.5603 702.5 51.869C700.119 69.2597 695.357 86.6504 688.214 104.041C681.255 121.432 672.739 138.273 662.665 154.566C652.592 170.675 641.787 185.686 630.248 199.599C618.893 213.511 607.721 225.776 596.732 236.394Z" stroke="#143A7D" stroke-width="8" mask="url(#path-1-outside-1_1119_327)"/>
</g>
<g filter="url(#filter1_d_1119_327)">
<path d="M80.9554 229.783C85.3509 232.712 90.3874 234.176 96.065 234.176C100.277 234.176 104.581 233.353 108.977 231.705C113.556 230.057 117.493 227.495 120.79 224.016C121.156 205.894 121.98 188.045 123.262 170.471C124.728 152.898 126 140.5 128.482 121.32C144 59.5001 114.654 40.4099 97.9881 37.2952C89.0138 36.0138 80.8638 35.373 73.5379 35.373C63.4648 35.373 55.7726 37.0206 50.4613 40.3157C45.3332 43.6108 41.7618 48.9195 39.7472 56.2419C37.9157 63.3812 37 72.7173 37 84.2501C41.2124 80.5889 46.3405 78.0261 52.3844 76.5616C58.6114 75.0971 65.571 74.3649 73.2632 74.3649C75.8272 74.3649 78.666 74.4564 81.7795 74.6394C84.893 74.8225 88.0981 75.0971 91.3947 75.4632C89.9296 84.7993 88.2812 95.4168 86.4498 107.316C84.8014 119.215 83.1531 131.663 81.5048 144.66C79.8565 157.474 78.3913 170.105 77.1093 182.553C76.0104 195.001 75.2778 206.351 74.9115 216.603C74.7283 222.46 76.743 226.854 80.9554 229.783Z" fill="#A5C5FF"/>
<path d="M79.8298 231.436L79.8136 231.425C74.9586 228.049 72.7117 222.962 72.9125 216.54L72.9127 216.531C73.2805 206.238 74.0157 194.853 75.117 182.378L75.1183 182.363L75.1198 182.348C76.4036 169.883 77.8707 157.236 79.5211 144.405C79.5211 144.405 79.5211 144.405 79.5211 144.405L79.8298 231.436ZM79.8298 231.436L79.8463 231.447M79.8298 231.436L79.8463 231.447M79.8463 231.447C84.5952 234.612 90.0237 236.176 96.065 236.176C100.539 236.176 105.076 235.301 109.666 233.582C114.529 231.831 118.729 229.098 122.241 225.392L122.774 224.831L122.789 224.057C123.155 205.972 123.977 188.162 125.256 170.628C126.716 153.123 127.983 140.771 130.451 121.693C138.253 90.5249 134.848 69.7539 127.034 56.2893C119.215 42.816 107.163 36.9753 98.3555 35.3292L98.3133 35.3213L98.2708 35.3153C89.2239 34.0235 80.9775 33.373 73.5379 33.373C63.2985 33.373 55.1734 35.0387 49.407 38.6162L49.3935 38.6245L49.3802 38.6331C43.7422 42.2557 39.9308 48.0353 37.8189 55.7113L37.8143 55.7281L37.8099 55.7449C35.9203 63.111 35 72.6326 35 84.2501V88.6382L38.312 85.7596C42.2548 82.3327 47.0829 79.905 52.8489 78.5069C58.8976 77.085 65.698 76.3649 73.2632 76.3649C75.7808 76.3649 78.5797 76.4548 81.6621 76.636C84.0812 76.7782 86.5582 76.9765 89.0931 77.2309L79.8463 231.447Z" stroke="#143A7D" stroke-width="4"/>
</g>
<g filter="url(#filter2_d_1119_327)">
<path d="M178.415 40.8647C173.287 42.1462 167.427 42.7869 160.833 42.7869C149.056 42.3579 124.7 41.2 121.5 40C130.333 44.6858 147.782 59.9642 146.582 82.1412L159.734 83.9754C164.863 84.5246 169.167 84.7992 172.646 84.7992C180.155 84.7992 186.108 83.4262 190.503 80.6803C194.899 77.7514 198.104 74.1817 200.118 69.9713C202.133 65.5779 203.14 61.0929 203.14 56.5164C203.14 51.3907 202.041 46.7227 199.844 42.5123C197.646 38.1188 194.532 35.2814 190.503 34C187.756 37.2951 183.727 39.5833 178.415 40.8647Z" fill="#FEA419"/>
<path d="M177.946 38.9205L177.939 38.9224L177.931 38.9244C173.004 40.1556 167.323 40.7845 160.87 40.7869C154.991 40.5725 145.996 40.1771 138.074 39.6864C134.102 39.4404 130.416 39.1715 127.533 38.8908C126.09 38.7503 124.867 38.6087 123.919 38.4683C122.91 38.319 122.378 38.1932 122.202 38.1273L120.563 41.7668C124.727 43.9757 131.065 48.7738 136.196 55.7018C141.311 62.6071 145.153 71.5225 144.585 82.0332L144.485 83.8682L146.305 84.122L159.458 85.9562L159.49 85.9606L159.521 85.964C164.69 86.5176 169.07 86.7992 172.646 86.7992C180.371 86.7992 186.737 85.391 191.563 82.3766L191.588 82.361L191.612 82.3447C196.267 79.2429 199.733 75.4107 201.923 70.8346L201.93 70.8198L201.936 70.8049C204.064 66.1649 205.14 61.3967 205.14 56.5164C205.14 51.1007 203.978 46.1164 201.625 41.602C199.228 36.8191 195.732 33.5642 191.109 32.0941L189.828 31.6866L188.967 32.7193C186.562 35.6036 182.955 37.7121 177.946 38.9205Z" stroke="#143A7D" stroke-width="4"/>
</g>
<defs>
<filter id="filter0_d_1119_327" x="124.15" y="3.49194" width="734.85" height="273.941" filterUnits="userSpaceOnUse" color-interpolation-filters="sRGB">
<feFlood flood-opacity="0" result="BackgroundImageFix"/>
<feColorMatrix in="SourceAlpha" type="matrix" values="0 0 0 0 0 0 0 0 0 0 0 0 0 0 0 0 0 0 127 0" result="hardAlpha"/>
<feOffset dy="4"/>
<feGaussianBlur stdDeviation="16.5"/>
<feComposite in2="hardAlpha" operator="out"/>
<feColorMatrix type="matrix" values="0 0 0 0 0 0 0 0 0 0 0 0 0 0 0 0 0 0 0.5 0"/>
<feBlend mode="normal" in2="BackgroundImageFix" result="effect1_dropShadow_1119_327"/>
<feBlend mode="normal" in="SourceGraphic" in2="effect1_dropShadow_1119_327" result="shape"/>
</filter>
<filter id="filter1_d_1119_327" x="0" y="2.37305" width="169.869" height="272.803" filterUnits="userSpaceOnUse" color-interpolation-filters="sRGB">
<feFlood flood-opacity="0" result="BackgroundImageFix"/>
<feColorMatrix in="SourceAlpha" type="matrix" values="0 0 0 0 0 0 0 0 0 0 0 0 0 0 0 0 0 0 127 0" result="hardAlpha"/>
<feOffset dy="4"/>
<feGaussianBlur stdDeviation="16.5"/>
<feComposite in2="hardAlpha" operator="out"/>
<feColorMatrix type="matrix" values="0 0 0 0 0 0 0 0 0 0 0 0 0 0 0 0 0 0 0.5 0"/>
<feBlend mode="normal" in2="BackgroundImageFix" result="effect1_dropShadow_1119_327"/>
<feBlend mode="normal" in="SourceGraphic" in2="effect1_dropShadow_1119_327" result="shape"/>
</filter>
<filter id="filter2_d_1119_327" x="86.6255" y="0.373047" width="153.515" height="125.426" filterUnits="userSpaceOnUse" color-interpolation-filters="sRGB">
<feFlood flood-opacity="0" result="BackgroundImageFix"/>
<feColorMatrix in="SourceAlpha" type="matrix" values="0 0 0 0 0 0 0 0 0 0 0 0 0 0 0 0 0 0 127 0" result="hardAlpha"/>
<feOffset dy="4"/>
<feGaussianBlur stdDeviation="16.5"/>
<feComposite in2="hardAlpha" operator="out"/>
<feColorMatrix type="matrix" values="0 0 0 0 0 0 0 0 0 0 0 0 0 0 0 0 0 0 0.5 0"/>
<feBlend mode="normal" in2="BackgroundImageFix" result="effect1_dropShadow_1119_327"/>
<feBlend mode="normal" in="SourceGraphic" in2="effect1_dropShadow_1119_327" result="shape"/>
</filter>
</defs>
</svg>
